<svg id="Layer_1" data-name="Layer 1" xmlns="http://www.w3.org/2000/svg" xmlns:xlink="http://www.w3.org/1999/xlink" viewBox="0 0 266.35 322.96"><defs><style>.cls-1{font-size:68.61px;fill:#fff;font-family:Montserrat-Bold, Montserrat;font-weight:700;}.cls-2{fill:url(#linear-gradient);}.cls-3{fill:url(#linear-gradient-2);}.cls-4{fill:url(#linear-gradient-3);}.cls-5{fill:url(#linear-gradient-4);}.cls-6{fill:url(#linear-gradient-5);}.cls-7{fill:url(#linear-gradient-6);}.cls-8{fill:#4731fd;}</style><linearGradient id="linear-gradient" x1="196.58" y1="-36.25" x2="-10.68" y2="188.81" gradientUnits="userSpaceOnUse"><stop offset="0" stop-color="#ffc728"/><stop offset="0.24" stop-color="#aff13a"/><stop offset="0.48" stop-color="#ff6196"/><stop offset="0.66" stop-color="#ff01fd"/><stop offset="1" stop-color="#183dfd"/></linearGradient><linearGradient id="linear-gradient-2" x1="287.03" y1="47.05" x2="79.77" y2="272.11" xlink:href="#linear-gradient"/><linearGradient id="linear-gradient-3" x1="249.11" y1="12.13" x2="41.86" y2="237.19" xlink:href="#linear-gradient"/><linearGradient id="linear-gradient-4" x1="283.73" y1="44.01" x2="76.47" y2="269.07" xlink:href="#linear-gradient"/><linearGradient id="linear-gradient-5" x1="234.09" y1="-1.7" x2="26.84" y2="223.36" xlink:href="#linear-gradient"/><linearGradient id="linear-gradient-6" x1="199.48" y1="-33.58" x2="-7.78" y2="191.48" xlink:href="#linear-gradient"/></defs><text class="cls-1" transform="translate(24.08 314.42)">dFuse</text><path class="cls-2" d="M132.75,4.58A45.89,45.89,0,0,0,90.67,32.15,41.16,41.16,0,0,0,86.85,48.3c0,2.68,0,5.35,0,8V84.64c0,.58,0,2.56,0,2.56a16,16,0,1,0,17.6,1.31h0s0-34.61,0-34.61v0a47.76,47.76,0,0,1,.26-8.46,28.48,28.48,0,0,1,54.81-4.57L175,32.46A45.93,45.93,0,0,0,132.75,4.58Z"/><path class="cls-3" d="M133.74,242a45.9,45.9,0,0,0,42.08-27.56,41.16,41.16,0,0,0,3.82-16.16V161.93c0-.58,0-2.57,0-2.57a16,16,0,1,0-17.6-1.31h0s0,34.62,0,34.62v0a47.76,47.76,0,0,1-.26,8.46,28.48,28.48,0,0,1-54.81,4.56l-15.42,8.38A45.9,45.9,0,0,0,133.74,242Z"/><path class="cls-4" d="M235.77,62.22a45.88,45.88,0,0,0-45.08-22.33,41.33,41.33,0,0,0-15.86,4.9l-6.92,4.06-18.78,11-5.63,3.3-2.21,1.31a16,16,0,1,0,7.79,15.84v0l29.85-17.53,0,0a48.6,48.6,0,0,1,7.42-4.06,28.3,28.3,0,0,1,6.55-1.56A28.46,28.46,0,0,1,220.75,71a28.49,28.49,0,0,1-2.66,32.64l15,9.06A45.9,45.9,0,0,0,235.77,62.22Z"/><path class="cls-5" d="M236.48,182a45.91,45.91,0,0,0-2.85-50.23,41.22,41.22,0,0,0-12.09-11.37c-2.32-1.35-4.64-2.68-6.95-4l-18.88-10.89-5.65-3.26-2.22-1.28a16,16,0,1,0-9.93,14.6v0l30,17.3h0a48.76,48.76,0,0,1,7.2,4.45,28.12,28.12,0,0,1,4.58,4.92,28.47,28.47,0,0,1-28,44.84l-.45,17.55A45.93,45.93,0,0,0,236.48,182Z"/><path class="cls-6" d="M30.57,183.69A45.9,45.9,0,0,0,75.65,206a41.32,41.32,0,0,0,15.87-4.9c2.31-1.34,4.61-2.71,6.91-4.06l18.79-11,5.63-3.3,2.21-1.3a16,16,0,1,0-7.79-15.85v0L87.41,183.08l0,0A48.21,48.21,0,0,1,80,187.17a27.8,27.8,0,0,1-6.55,1.56,28.48,28.48,0,0,1-25.16-46.5l-15-9.06A45.92,45.92,0,0,0,30.57,183.69Z"/><path class="cls-7" d="M29.87,63.94a45.91,45.91,0,0,0,2.85,50.23,41.38,41.38,0,0,0,12.09,11.38q3.46,2,6.95,4l18.88,10.89,5.65,3.26L78.51,145a16,16,0,1,0,9.93-14.6v0l-30-17.29,0,0a48.76,48.76,0,0,1-7.2-4.45,28.17,28.17,0,0,1-4.59-4.92,28.48,28.48,0,0,1,28-44.84l.45-17.54A45.91,45.91,0,0,0,29.87,63.94Z"/><circle class="cls-8" cx="133.41" cy="122.73" r="19.43"/></svg>