<svg id="Layer_1" data-name="Layer 1" xmlns="http://www.w3.org/2000/svg" xmlns:xlink="http://www.w3.org/1999/xlink" viewBox="0 0 693.39 283.3"><defs><style>.cls-1{font-size:136.58px;fill:#fff;font-family:Montserrat-Bold, Montserrat;font-weight:700;}.cls-2{letter-spacing:-0.01em;}.cls-3{fill:url(#linear-gradient);}.cls-4{fill:url(#linear-gradient-2);}.cls-5{fill:url(#linear-gradient-3);}.cls-6{fill:url(#linear-gradient-4);}.cls-7{fill:url(#linear-gradient-5);}.cls-8{fill:url(#linear-gradient-6);}.cls-9{fill:#4731fd;}</style><linearGradient id="linear-gradient" x1="179.41" y1="-5.9" x2="-19.4" y2="209.99" gradientUnits="userSpaceOnUse"><stop offset="0" stop-color="#ffc728"/><stop offset="0.24" stop-color="#aff13a"/><stop offset="0.48" stop-color="#ff6196"/><stop offset="0.66" stop-color="#ff01fd"/><stop offset="1" stop-color="#183dfd"/></linearGradient><linearGradient id="linear-gradient-2" x1="266.18" y1="74" x2="67.37" y2="289.89" xlink:href="#linear-gradient"/><linearGradient id="linear-gradient-3" x1="229.81" y1="40.51" x2="31" y2="256.4" xlink:href="#linear-gradient"/><linearGradient id="linear-gradient-4" x1="263.01" y1="71.08" x2="64.2" y2="286.97" xlink:href="#linear-gradient"/><linearGradient id="linear-gradient-5" x1="215.4" y1="27.24" x2="16.59" y2="243.13" xlink:href="#linear-gradient"/><linearGradient id="linear-gradient-6" x1="182.19" y1="-3.34" x2="-16.61" y2="212.55" xlink:href="#linear-gradient"/></defs><text class="cls-1" transform="translate(249 187.01)">d<tspan class="cls-2" x="94.51" y="0">F</tspan><tspan x="180.01" y="0">use</tspan></text><path class="cls-3" d="M118.19,33.27A44,44,0,0,0,77.82,59.71a39.65,39.65,0,0,0-3.66,15.5c0,2.56,0,5.13,0,7.69v29.62a15.35,15.35,0,1,0,16.89,1.26h0s0-33.2,0-33.2v0a45.74,45.74,0,0,1,.25-8.11,27.18,27.18,0,0,1,1.89-6.17A27.32,27.32,0,0,1,143.9,68l14.79-8A44,44,0,0,0,118.19,33.27Z"/><path class="cls-4" d="M119.14,261a44,44,0,0,0,40.36-26.44,39.31,39.31,0,0,0,3.66-15.5c0-2.56,0-5.12,0-7.69V181.74a15.34,15.34,0,1,0-16.89-1.26h0v33.25a45.74,45.74,0,0,1-.24,8.11,27.18,27.18,0,0,1-1.89,6.17,27.32,27.32,0,0,1-50.69-1.79l-14.79,8A44,44,0,0,0,119.14,261Z"/><path class="cls-5" d="M217,88.55a44,44,0,0,0-43.24-21.41,39.51,39.51,0,0,0-15.22,4.7l-6.63,3.89-18,10.59-5.4,3.17-2.12,1.25a15.34,15.34,0,1,0,7.47,15.2v0l28.63-16.82,0,0a46,46,0,0,1,7.11-3.9,27.24,27.24,0,0,1,6.28-1.5,27.32,27.32,0,0,1,24.13,44.61L214.48,137A44,44,0,0,0,217,88.55Z"/><path class="cls-6" d="M217.69,203.42A44,44,0,0,0,215,155.25a39.56,39.56,0,0,0-11.59-10.92c-2.22-1.29-4.45-2.56-6.67-3.84l-18.1-10.44-5.43-3.13L171,125.69a15.34,15.34,0,1,0-9.53,14h0l28.76,16.59,0,0a46.46,46.46,0,0,1,6.91,4.26,27.32,27.32,0,0,1-22.47,47.74l-.43,16.83A44,44,0,0,0,217.69,203.42Z"/><path class="cls-7" d="M20.18,205.08a44,44,0,0,0,43.24,21.41,39.49,39.49,0,0,0,15.22-4.69l6.63-3.9,18-10.59,5.4-3.17,2.12-1.25a15.34,15.34,0,1,0-7.47-15.2h0L74.7,204.49l0,0a46,46,0,0,1-7.11,3.9A27.32,27.32,0,0,1,37.14,165.3l-14.43-8.68A44,44,0,0,0,20.18,205.08Z"/><path class="cls-8" d="M19.5,90.21a44,44,0,0,0,2.74,48.18A39.53,39.53,0,0,0,33.83,149.3l6.67,3.85,18.11,10.44L64,166.71l2.13,1.23a15.34,15.34,0,1,0,9.53-14v0L46.94,137.33l0,0A45.64,45.64,0,0,1,40,133.05a27,27,0,0,1-4.4-4.72,27.32,27.32,0,0,1,26.87-43l.43-16.83A44,44,0,0,0,19.5,90.21Z"/><circle class="cls-9" cx="118.82" cy="146.6" r="18.64"/></svg>